<?xml version="1.0" standalone="no"?><!DOCTYPE svg PUBLIC "-//W3C//DTD SVG 1.1//EN" "http://www.w3.org/Graphics/SVG/1.1/DTD/svg11.dtd"><svg t="1615628698718" class="icon" viewBox="0 0 1024 1024" version="1.1" xmlns="http://www.w3.org/2000/svg" p-id="6430" xmlns:xlink="http://www.w3.org/1999/xlink" width="200" height="200"><defs><style type="text/css"></style></defs><path d="M512 49.501c-256.259 0-464.001 207.739-464.001 464.001C47.999 769.76 255.74 977.5 512 977.5c256.261 0 464.001-207.741 464.001-463.998 0-256.261-207.739-464.001-464.001-464.001z m0 847.998c-212.077 0-384-171.923-384-383.998 0-212.078 171.923-384.002 384-384.002s384 171.923 384 384.002c0 212.075-171.923 383.998-384 383.998z" p-id="6431"></path><path d="M421.49 422.99S277.325 744.612 280.836 744.612c0.035 0 0.085-0.032 0.15-0.097 6.574-6.575 321.524-140.503 321.524-140.503 0.002-0.004 133.93-314.95 140.503-321.525 6.573-6.573-321.524 140.503-321.524 140.503z m31.78 31.779l112.586 112.586c-31.483 13.58-189.732 86.34-196.039 89.065 15.641-35.37 65.989-162.384 83.453-201.65z" p-id="6432"></path></svg>